<svg id="my-svg" width="100%" xmlns="http://www.w3.org/2000/svg" xmlns:xlink="http://www.w3.org/1999/xlink" class="flowchart" style="max-width: 372.453px; background-color: white;" viewBox="0 0 372.453125 826" role="graphics-document document" aria-roledescription="flowchart-v2"><style>#my-svg{font-family:ui-sans-serif,system-ui,sans-serif;font-size:17px;fill:#1a1a1a;}@keyframes edge-animation-frame{from{stroke-dashoffset:0;}}@keyframes dash{to{stroke-dashoffset:0;}}#my-svg .edge-animation-slow{stroke-dasharray:9,5!important;stroke-dashoffset:900;animation:dash 50s linear infinite;stroke-linecap:round;}#my-svg .edge-animation-fast{stroke-dasharray:9,5!important;stroke-dashoffset:900;animation:dash 20s linear infinite;stroke-linecap:round;}#my-svg .error-icon{fill:hsl(180, 0%, 100%);}#my-svg .error-text{fill:rgb(0, 0, 0);stroke:rgb(0, 0, 0);}#my-svg .edge-thickness-normal{stroke-width:1px;}#my-svg .edge-thickness-thick{stroke-width:3.5px;}#my-svg .edge-pattern-solid{stroke-dasharray:0;}#my-svg .edge-thickness-invisible{stroke-width:0;fill:none;}#my-svg .edge-pattern-dashed{stroke-dasharray:3;}#my-svg .edge-pattern-dotted{stroke-dasharray:2;}#my-svg .marker{fill:#555555;stroke:#555555;}#my-svg .marker.cross{stroke:#555555;}#my-svg svg{font-family:ui-sans-serif,system-ui,sans-serif;font-size:17px;}#my-svg p{margin:0;}#my-svg .label{font-family:ui-sans-serif,system-ui,sans-serif;color:#1a1a1a;}#my-svg .cluster-label text{fill:rgb(0, 0, 0);}#my-svg .cluster-label span{color:rgb(0, 0, 0);}#my-svg .cluster-label span p{background-color:transparent;}#my-svg .label text,#my-svg span{fill:#1a1a1a;color:#1a1a1a;}#my-svg .node rect,#my-svg .node circle,#my-svg .node ellipse,#my-svg .node polygon,#my-svg .node path{fill:#f5f5f5;stroke:#aaaaaa;stroke-width:1px;}#my-svg .rough-node .label text,#my-svg .node .label text,#my-svg .image-shape .label,#my-svg .icon-shape .label{text-anchor:middle;}#my-svg .node .katex path{fill:#000;stroke:#000;stroke-width:1px;}#my-svg .rough-node .label,#my-svg .node .label,#my-svg .image-shape .label,#my-svg .icon-shape .label{text-align:center;}#my-svg .node.clickable{cursor:pointer;}#my-svg .root .anchor path{fill:#555555!important;stroke-width:0;stroke:#555555;}#my-svg .arrowheadPath{fill:#0b0b0b;}#my-svg .edgePath .path{stroke:#555555;stroke-width:1px;}#my-svg .flowchart-link{stroke:#555555;fill:none;}#my-svg .edgeLabel{background-color:hsl(-120, 0%, 96.0784313725%);text-align:center;}#my-svg .edgeLabel p{background-color:hsl(-120, 0%, 96.0784313725%);}#my-svg .edgeLabel rect{opacity:0.5;background-color:hsl(-120, 0%, 96.0784313725%);fill:hsl(-120, 0%, 96.0784313725%);}#my-svg .labelBkg{background-color:rgba(244.9999999999, 244.9999999999, 244.9999999999, 0.5);}#my-svg .cluster rect{fill:#fafafa;stroke:#cccccc;stroke-width:1px;}#my-svg .cluster text{fill:rgb(0, 0, 0);}#my-svg .cluster span{color:rgb(0, 0, 0);}#my-svg div.mermaidTooltip{position:absolute;text-align:center;max-width:200px;padding:2px;font-family:ui-sans-serif,system-ui,sans-serif;font-size:12px;background:hsl(180, 0%, 100%);border:1px solid hsl(180, 0%, 90%);border-radius:2px;pointer-events:none;z-index:100;}#my-svg .flowchartTitleText{text-anchor:middle;font-size:18px;fill:#1a1a1a;}#my-svg rect.text{fill:none;stroke-width:0;}#my-svg .icon-shape,#my-svg .image-shape{background-color:hsl(-120, 0%, 96.0784313725%);text-align:center;}#my-svg .icon-shape p,#my-svg .image-shape p{background-color:hsl(-120, 0%, 96.0784313725%);padding:2px;}#my-svg .icon-shape .label rect,#my-svg .image-shape .label rect{opacity:0.5;background-color:hsl(-120, 0%, 96.0784313725%);fill:hsl(-120, 0%, 96.0784313725%);}#my-svg .label-icon{display:inline-block;height:1em;overflow:visible;vertical-align:-0.125em;}#my-svg .node .label-icon path{fill:currentColor;stroke:revert;stroke-width:revert;}#my-svg .node .neo-node{stroke:#aaaaaa;}#my-svg [data-look="neo"].node rect,#my-svg [data-look="neo"].cluster rect,#my-svg [data-look="neo"].node polygon{stroke:url(#my-svg-gradient);filter:drop-shadow( 1px 2px 2px rgba(185,185,185,1));}#my-svg [data-look="neo"].node path{stroke:url(#my-svg-gradient);stroke-width:1px;}#my-svg [data-look="neo"].node .outer-path{filter:drop-shadow( 1px 2px 2px rgba(185,185,185,1));}#my-svg [data-look="neo"].node .neo-line path{stroke:#aaaaaa;filter:none;}#my-svg [data-look="neo"].node circle{stroke:url(#my-svg-gradient);filter:drop-shadow( 1px 2px 2px rgba(185,185,185,1));}#my-svg [data-look="neo"].node circle .state-start{fill:#000000;}#my-svg [data-look="neo"].icon-shape .icon{fill:url(#my-svg-gradient);filter:drop-shadow( 1px 2px 2px rgba(185,185,185,1));}#my-svg [data-look="neo"].icon-shape .icon-neo path{stroke:url(#my-svg-gradient);filter:drop-shadow( 1px 2px 2px rgba(185,185,185,1));}#my-svg :root{--mermaid-font-family:"trebuchet ms",verdana,arial,sans-serif;}#my-svg .source&gt;*{fill:rgb(212, 237, 218)!important;stroke:rgb(90, 154, 111)!important;stroke-width:2px!important;color:rgb(26, 26, 26)!important;}#my-svg .source span{fill:rgb(212, 237, 218)!important;stroke:rgb(90, 154, 111)!important;stroke-width:2px!important;color:rgb(26, 26, 26)!important;}#my-svg .source tspan{fill:rgb(26, 26, 26)!important;}#my-svg .ingest&gt;*{fill:rgb(238, 247, 240)!important;stroke:rgb(90, 154, 111)!important;stroke-width:2px!important;color:rgb(26, 26, 26)!important;}#my-svg .ingest span{fill:rgb(238, 247, 240)!important;stroke:rgb(90, 154, 111)!important;stroke-width:2px!important;color:rgb(26, 26, 26)!important;}#my-svg .ingest tspan{fill:rgb(26, 26, 26)!important;}#my-svg .bronze&gt;*{fill:rgb(255, 243, 224)!important;stroke:rgb(191, 124, 42)!important;stroke-width:2px!important;color:rgb(122, 79, 26)!important;}#my-svg .bronze span{fill:rgb(255, 243, 224)!important;stroke:rgb(191, 124, 42)!important;stroke-width:2px!important;color:rgb(122, 79, 26)!important;}#my-svg .bronze tspan{fill:rgb(122, 79, 26)!important;}#my-svg .silver&gt;*{fill:rgb(242, 242, 242)!important;stroke:rgb(136, 136, 136)!important;stroke-width:2px!important;color:rgb(51, 51, 51)!important;}#my-svg .silver span{fill:rgb(242, 242, 242)!important;stroke:rgb(136, 136, 136)!important;stroke-width:2px!important;color:rgb(51, 51, 51)!important;}#my-svg .silver tspan{fill:rgb(51, 51, 51)!important;}#my-svg .gold&gt;*{fill:rgb(255, 253, 231)!important;stroke:rgb(200, 148, 26)!important;stroke-width:2px!important;color:rgb(122, 92, 0)!important;}#my-svg .gold span{fill:rgb(255, 253, 231)!important;stroke:rgb(200, 148, 26)!important;stroke-width:2px!important;color:rgb(122, 92, 0)!important;}#my-svg .gold tspan{fill:rgb(122, 92, 0)!important;}</style><g><marker id="my-svg_flowchart-v2-pointEnd" class="marker flowchart-v2" viewBox="0 0 10 10" refX="5" refY="5" markerUnits="userSpaceOnUse" markerWidth="8" markerHeight="8" orient="auto"><path d="M 0 0 L 10 5 L 0 10 z" class="arrowMarkerPath" style="stroke-width: 1; stroke-dasharray: 1, 0;"/></marker><marker id="my-svg_flowchart-v2-pointStart" class="marker flowchart-v2" viewBox="0 0 10 10" refX="4.5" refY="5" markerUnits="userSpaceOnUse" markerWidth="8" markerHeight="8" orient="auto"><path d="M 0 5 L 10 10 L 10 0 z" class="arrowMarkerPath" style="stroke-width: 1; stroke-dasharray: 1, 0;"/></marker><marker id="my-svg_flowchart-v2-pointEnd-margin" class="marker flowchart-v2" viewBox="0 0 11.5 14" refX="11.5" refY="7" markerUnits="userSpaceOnUse" markerWidth="10.5" markerHeight="14" orient="auto"><path d="M 0 0 L 11.5 7 L 0 14 z" class="arrowMarkerPath" style="stroke-width: 0; stroke-dasharray: 1, 0;"/></marker><marker id="my-svg_flowchart-v2-pointStart-margin" class="marker flowchart-v2" viewBox="0 0 11.5 14" refX="1" refY="7" markerUnits="userSpaceOnUse" markerWidth="11.5" markerHeight="14" orient="auto"><polygon points="0,7 11.5,14 11.5,0" class="arrowMarkerPath" style="stroke-width: 0; stroke-dasharray: 1, 0;"/></marker><marker id="my-svg_flowchart-v2-circleEnd" class="marker flowchart-v2" viewBox="0 0 10 10" refX="11" refY="5" markerUnits="userSpaceOnUse" markerWidth="11" markerHeight="11" orient="auto"><circle cx="5" cy="5" r="5" class="arrowMarkerPath" style="stroke-width: 1; stroke-dasharray: 1, 0;"/></marker><marker id="my-svg_flowchart-v2-circleStart" class="marker flowchart-v2" viewBox="0 0 10 10" refX="-1" refY="5" markerUnits="userSpaceOnUse" markerWidth="11" markerHeight="11" orient="auto"><circle cx="5" cy="5" r="5" class="arrowMarkerPath" style="stroke-width: 1; stroke-dasharray: 1, 0;"/></marker><marker id="my-svg_flowchart-v2-circleEnd-margin" class="marker flowchart-v2" viewBox="0 0 10 10" refY="5" refX="12.25" markerUnits="userSpaceOnUse" markerWidth="14" markerHeight="14" orient="auto"><circle cx="5" cy="5" r="5" class="arrowMarkerPath" style="stroke-width: 0; stroke-dasharray: 1, 0;"/></marker><marker id="my-svg_flowchart-v2-circleStart-margin" class="marker flowchart-v2" viewBox="0 0 10 10" refX="-2" refY="5" markerUnits="userSpaceOnUse" markerWidth="14" markerHeight="14" orient="auto"><circle cx="5" cy="5" r="5" class="arrowMarkerPath" style="stroke-width: 0; stroke-dasharray: 1, 0;"/></marker><marker id="my-svg_flowchart-v2-crossEnd" class="marker cross flowchart-v2" viewBox="0 0 11 11" refX="12" refY="5.2" markerUnits="userSpaceOnUse" markerWidth="11" markerHeight="11" orient="auto"><path d="M 1,1 l 9,9 M 10,1 l -9,9" class="arrowMarkerPath" style="stroke-width: 2; stroke-dasharray: 1, 0;"/></marker><marker id="my-svg_flowchart-v2-crossStart" class="marker cross flowchart-v2" viewBox="0 0 11 11" refX="-1" refY="5.2" markerUnits="userSpaceOnUse" markerWidth="11" markerHeight="11" orient="auto"><path d="M 1,1 l 9,9 M 10,1 l -9,9" class="arrowMarkerPath" style="stroke-width: 2; stroke-dasharray: 1, 0;"/></marker><marker id="my-svg_flowchart-v2-crossEnd-margin" class="marker cross flowchart-v2" viewBox="0 0 15 15" refX="17.7" refY="7.5" markerUnits="userSpaceOnUse" markerWidth="12" markerHeight="12" orient="auto"><path d="M 1,1 L 14,14 M 1,14 L 14,1" class="arrowMarkerPath" style="stroke-width: 2.5;"/></marker><marker id="my-svg_flowchart-v2-crossStart-margin" class="marker cross flowchart-v2" viewBox="0 0 15 15" refX="-3.5" refY="7.5" markerUnits="userSpaceOnUse" markerWidth="12" markerHeight="12" orient="auto"><path d="M 1,1 L 14,14 M 1,14 L 14,1" class="arrowMarkerPath" style="stroke-width: 2.5; stroke-dasharray: 1, 0;"/></marker><g class="root"><g class="clusters"/><g class="edgePaths"><path d="M189.145,77.5L189.061,81.167C188.978,84.833,188.811,92.167,188.728,98.917C188.645,105.667,188.645,111.833,188.645,114.917L188.645,118" id="my-svg-L_SRC_N01_0" class="edge-thickness-normal edge-pattern-solid edge-thickness-normal edge-pattern-solid flowchart-link" style=";" data-edge="true" data-et="edge" data-id="L_SRC_N01_0" data-points="W3sieCI6MTg5LjE0NDUzMTI1LCJ5Ijo3Ny41fSx7IngiOjE4OC42NDQ1MzEyNSwieSI6OTkuNX0seyJ4IjoxODguNjQ0NTMxMjUsInkiOjEyMn1d" data-look="classic" marker-end="url(#my-svg_flowchart-v2-pointEnd)"/><path d="M188.645,260L188.645,263.75C188.645,267.5,188.645,275,188.713,281.917C188.782,288.834,188.92,295.167,188.989,298.334L189.058,301.501" id="my-svg-L_N01_B01_0" class="edge-thickness-normal edge-pattern-solid edge-thickness-normal edge-pattern-solid flowchart-link" style=";" data-edge="true" data-et="edge" data-id="L_N01_B01_0" data-points="W3sieCI6MTg4LjY0NDUzMTI1LCJ5IjoyNjB9LHsieCI6MTg4LjY0NDUzMTI1LCJ5IjoyODIuNX0seyJ4IjoxODkuMTQ0NTMxMjUsInkiOjMwNS41fV0=" data-look="classic" marker-end="url(#my-svg_flowchart-v2-pointEnd)"/><path d="M128.398,374.5L121.712,378.167C115.026,381.833,101.654,389.167,95.036,396C88.419,402.834,88.557,409.167,88.625,412.334L88.694,415.501" id="my-svg-L_B01_S01_0" class="edge-thickness-normal edge-pattern-solid edge-thickness-normal edge-pattern-solid flowchart-link" style=";" data-edge="true" data-et="edge" data-id="L_B01_S01_0" data-points="W3sieCI6MTI4LjM5ODMzNDcwMzk0NzM3LCJ5IjozNzQuNX0seyJ4Ijo4OC4yODEyNSwieSI6Mzk2LjV9LHsieCI6ODguNzgxMjUsInkiOjQxOS41fV0=" data-look="classic" marker-end="url(#my-svg_flowchart-v2-pointEnd)"/><path d="M249.891,374.5L256.41,378.167C262.93,381.833,275.969,389.167,282.557,396C289.146,402.834,289.283,409.167,289.352,412.334L289.421,415.501" id="my-svg-L_B01_S02_0" class="edge-thickness-normal edge-pattern-solid edge-thickness-normal edge-pattern-solid flowchart-link" style=";" data-edge="true" data-et="edge" data-id="L_B01_S02_0" data-points="W3sieCI6MjQ5Ljg5MDcyNzc5NjA1MjYzLCJ5IjozNzQuNX0seyJ4IjoyODkuMDA3ODEyNSwieSI6Mzk2LjV9LHsieCI6Mjg5LjUwNzgxMjUsInkiOjQxOS41fV0=" data-look="classic" marker-end="url(#my-svg_flowchart-v2-pointEnd)"/><path d="M88.781,514L88.698,517.667C88.615,521.333,88.448,528.667,92.496,535.742C96.543,542.818,104.806,549.636,108.937,553.045L113.068,556.454" id="my-svg-L_S01_G01_0" class="edge-thickness-normal edge-pattern-solid edge-thickness-normal edge-pattern-solid flowchart-link" style=";" data-edge="true" data-et="edge" data-id="L_S01_G01_0" data-points="W3sieCI6ODguNzgxMjUsInkiOjUxNH0seyJ4Ijo4OC4yODEyNSwieSI6NTM2fSx7IngiOjExNi4xNTMwNTM5NzcyNzI3MywieSI6NTU5fV0=" data-look="classic" marker-end="url(#my-svg_flowchart-v2-pointEnd)"/><path d="M289.508,514L289.424,517.667C289.341,521.333,289.174,528.667,285.119,535.733C281.064,542.8,273.119,549.599,269.147,552.999L265.175,556.399" id="my-svg-L_S02_G01_0" class="edge-thickness-normal edge-pattern-solid edge-thickness-normal edge-pattern-solid flowchart-link" style=";" data-edge="true" data-et="edge" data-id="L_S02_G01_0" data-points="W3sieCI6Mjg5LjUwNzgxMjUsInkiOjUxNH0seyJ4IjoyODkuMDA3ODEyNSwieSI6NTM2fSx7IngiOjI2Mi4xMzYwMDg1MjI3MjcyNSwieSI6NTU5fV0=" data-look="classic" marker-end="url(#my-svg_flowchart-v2-pointEnd)"/><path d="M189.145,679L189.061,682.667C188.978,686.333,188.811,693.667,188.797,700.5C188.782,707.334,188.92,713.667,188.989,716.834L189.058,720.001" id="my-svg-L_G01_G02_0" class="edge-thickness-normal edge-pattern-solid edge-thickness-normal edge-pattern-solid flowchart-link" style=";" data-edge="true" data-et="edge" data-id="L_G01_G02_0" data-points="W3sieCI6MTg5LjE0NDUzMTI1LCJ5Ijo2Nzl9LHsieCI6MTg4LjY0NDUzMTI1LCJ5Ijo3MDF9LHsieCI6MTg5LjE0NDUzMTI1LCJ5Ijo3MjR9XQ==" data-look="classic" marker-end="url(#my-svg_flowchart-v2-pointEnd)"/></g><g class="edgeLabels"><g class="edgeLabel"><g class="label" data-id="L_SRC_N01_0" transform="translate(0, 0)"><foreignObject width="0" height="0"><div xmlns="http://www.w3.org/1999/xhtml" class="labelBkg" style="display: table-cell; white-space: nowrap; line-height: 1.5; max-width: 200px; text-align: center;"><span class="edgeLabel"></span></div></foreignObject></g></g><g class="edgeLabel"><g class="label" data-id="L_N01_B01_0" transform="translate(0, 0)"><foreignObject width="0" height="0"><div xmlns="http://www.w3.org/1999/xhtml" class="labelBkg" style="display: table-cell; white-space: nowrap; line-height: 1.5; max-width: 200px; text-align: center;"><span class="edgeLabel"></span></div></foreignObject></g></g><g class="edgeLabel"><g class="label" data-id="L_B01_S01_0" transform="translate(0, 0)"><foreignObject width="0" height="0"><div xmlns="http://www.w3.org/1999/xhtml" class="labelBkg" style="display: table-cell; white-space: nowrap; line-height: 1.5; max-width: 200px; text-align: center;"><span class="edgeLabel"></span></div></foreignObject></g></g><g class="edgeLabel"><g class="label" data-id="L_B01_S02_0" transform="translate(0, 0)"><foreignObject width="0" height="0"><div xmlns="http://www.w3.org/1999/xhtml" class="labelBkg" style="display: table-cell; white-space: nowrap; line-height: 1.5; max-width: 200px; text-align: center;"><span class="edgeLabel"></span></div></foreignObject></g></g><g class="edgeLabel"><g class="label" data-id="L_S01_G01_0" transform="translate(0, 0)"><foreignObject width="0" height="0"><div xmlns="http://www.w3.org/1999/xhtml" class="labelBkg" style="display: table-cell; white-space: nowrap; line-height: 1.5; max-width: 200px; text-align: center;"><span class="edgeLabel"></span></div></foreignObject></g></g><g class="edgeLabel"><g class="label" data-id="L_S02_G01_0" transform="translate(0, 0)"><foreignObject width="0" height="0"><div xmlns="http://www.w3.org/1999/xhtml" class="labelBkg" style="display: table-cell; white-space: nowrap; line-height: 1.5; max-width: 200px; text-align: center;"><span class="edgeLabel"></span></div></foreignObject></g></g><g class="edgeLabel"><g class="label" data-id="L_G01_G02_0" transform="translate(0, 0)"><foreignObject width="0" height="0"><div xmlns="http://www.w3.org/1999/xhtml" class="labelBkg" style="display: table-cell; white-space: nowrap; line-height: 1.5; max-width: 200px; text-align: center;"><span class="edgeLabel"></span></div></foreignObject></g></g></g><g class="nodes"><g class="node default source" id="my-svg-flowchart-SRC-0" data-look="classic" transform="translate(188.64453125, 42.5)"><g class="basic label-container outer-path"><path d="M-63.0625 -34.5 C-25.459293359628383 -34.5, 12.143913280743234 -34.5, 63.0625 -34.5 C63.0625 -34.5, 63.0625 -34.5, 63.0625 -34.5 C63.62809570388216 -34.48186244664175, 64.19369140776432 -34.463724893283505, 65.2729225893346 -34.4291160498866 C65.95496786303313 -34.36331996261236, 66.63701313673167 -34.297523875338115, 67.47426207811546 -34.216755476901994 C68.09029981851054 -34.11715927247894, 68.70633755890563 -34.0175630680559, 69.65747269019734 -33.86379091619176 C70.49902163890326 -33.67171286026974, 71.3405705876092 -33.47963480434772, 71.813583144878 -33.371672774846516 C72.54036405123932 -33.1559680167893, 73.26714495760064 -32.94026325873209, 73.93373352181491 -32.74242327186807 C74.63655500688371 -32.48377846855217, 75.33937649195249 -32.225133665236264, 76.00921166833841 -31.97862812843775 C76.63330759009852 -31.702359377022294, 77.25740351185863 -31.42609062560684, 78.03148899955575 -31.08342594263346 C78.78109161111534 -30.692358740326206, 79.53069422267495 -30.30129153801895, 79.99225554413584 -30.060495292256938 C80.60784193866527 -29.687323202305993, 81.22342833319472 -29.314151112355052, 81.88345409176392 -28.914039618768506 C82.48007094754276 -28.497865527304622, 83.07668780332158 -28.08169143584074, 83.69731330194695 -27.648769954444504 C84.36793920390586 -27.11396364373701, 85.03856510586478 -26.579157333029514, 85.42637963811869 -26.26988556373514 C85.93891797209442 -25.804411809839582, 86.45145630607014 -25.338938055944023, 87.06354799582027 -24.783052578371603 C87.57926772403265 -24.250529617615197, 88.09498745224504 -23.71800665685879, 88.60209089909839 -23.194380714015438 C89.0914842442104 -22.61951144357664, 89.58087758932243 -22.04464217313785, 90.03568614514703 -21.510398164126308 C90.38484757495084 -21.042553657449822, 90.73400900475467 -20.574709150773337, 91.35844278359497 -19.73802477421486 C91.83136130868739 -19.01149492326773, 92.30427983377983 -18.2849650723206, 92.56492532368443 -17.88454360671312 C92.86345162026102 -17.354479938075958, 93.16197791683759 -16.824416269438796, 93.65017606986851 -15.957571013308817 C93.8729694025073 -15.494935891070707, 94.0957627351461 -15.032300768832595, 94.60973549404552 -13.965025337722595 C94.8724750107284 -13.316053651792943, 95.13521452741125 -12.667081965863291, 95.43966056071673 -11.91509437753513 C95.66383917442464 -11.239904111058411, 95.88801778813254 -10.564713844581693, 96.13654092976479 -9.816201738770628 C96.27062056392609 -9.304897983232596, 96.40470019808737 -8.793594227694564, 96.69751297027292 -7.67697222149285 C96.82416653617861 -7.026632928807797, 96.9508201020843 -6.376293636122744, 97.12027152779854 -5.506196378651596 C97.21510120814942 -4.7707161040885095, 97.30993088850032 -4.035235829525424, 97.40307939674733 -3.312794393815027 C97.44299560565916 -2.691067220229487, 97.48291181457098 -2.069340046643947, 97.54477445892374 -1.1057794262221032 C97.54477445892374 -0.5458542840868901, 97.54477445892374 0.014070858048323087, 97.54477445892374 1.1057794262220948 C97.51440558651831 1.5787991272491648, 97.48403671411289 2.051818828276235, 97.40307939674733 3.3127943938150035 C97.3199687250042 3.9573843517963048, 97.23685805326107 4.6019743097776065, 97.12027152779854 5.506196378651572 C96.99242327744288 6.16267012349056, 96.86457502708724 6.819143868329547, 96.69751297027292 7.676972221492843 C96.5027199527283 8.419802421218323, 96.30792693518367 9.162632620943803, 96.13654092976479 9.816201738770607 C95.98195566164209 10.281787936538523, 95.82737039351937 10.747374134306439, 95.43966056071673 11.915094377535107 C95.20752003157142 12.488485972655827, 94.97537950242612 13.061877567776548, 94.60973549404554 13.965025337722585 C94.26943802081698 14.671660322081177, 93.92914054758843 15.378295306439767, 93.65017606986851 15.957571013308808 C93.22336558222152 16.715416253374457, 92.79655509457452 17.473261493440106, 92.56492532368445 17.88454360671311 C92.11815493140094 18.570902903908948, 91.67138453911743 19.257262201104783, 91.35844278359498 19.738024774214843 C91.0086459278722 20.206720693734248, 90.65884907214941 20.675416613253653, 90.03568614514703 21.5103981641263 C89.49676112471404 22.14345015882927, 88.95783610428106 22.776502153532245, 88.6020908990984 23.194380714015416 C88.26150162372043 23.54606710374272, 87.92091234834245 23.89775349347002, 87.06354799582029 24.783052578371596 C86.6889799946418 25.123225326515673, 86.31441199346331 25.46339807465975, 85.42637963811873 26.26988556373512 C85.02875515602877 26.58698050697001, 84.63113067393881 26.904075450204907, 83.69731330194696 27.6487699544445 C83.08710396401153 28.074425573051766, 82.47689462607609 28.500081191659028, 81.88345409176395 28.91403961876849 C81.49961627583102 29.146724358468425, 81.11577845989807 29.379409098168356, 79.99225554413586 30.060495292256935 C79.4331499109661 30.35218034295735, 78.87404427779633 30.64386539365777, 78.03148899955576 31.083425942633458 C77.29602169243752 31.408995502632195, 76.56055438531926 31.734565062630935, 76.00921166833842 31.978628128437748 C75.47807650516535 32.174090778245066, 74.94694134199227 32.369553428052384, 73.93373352181493 32.74242327186806 C73.25374613507582 32.9442399589256, 72.5737587483367 33.146056645983144, 71.81358314487804 33.37167277484651 C71.32197542572135 33.483879028703846, 70.83036770656466 33.59608528256119, 69.65747269019735 33.86379091619175 C69.01668828806167 33.96738796897179, 68.37590388592601 34.07098502175183, 67.47426207811547 34.21675547690199 C66.84778482981496 34.27719098359641, 66.22130758151444 34.33762649029084, 65.2729225893346 34.4291160498866 C64.67953178126544 34.44814493813624, 64.08614097319628 34.46717382638588, 63.06250000000001 34.5 C63.06250000000001 34.5, 63.0625 34.5, 63.0625 34.5 C32.697234472187176 34.5, 2.3319689443743528 34.5, -63.06249999999999 34.5 C-63.71097157801248 34.47920477866649, -64.35944315602497 34.45840955733299, -65.27292258933458 34.4291160498866 C-65.82617121441811 34.37574482040361, -66.37941983950165 34.32237359092063, -67.47426207811546 34.21675547690199 C-68.1396879196721 34.10917458729358, -68.80511376122872 34.00159369768518, -69.65747269019734 33.86379091619175 C-70.47929059184841 33.67621634300289, -71.30110849349948 33.48864176981403, -71.813583144878 33.371672774846516 C-72.3836512984614 33.202479539211765, -72.95371945204481 33.033286303577015, -73.9337335218149 32.74242327186808 C-74.59492785996844 32.49909764341412, -75.25612219812196 32.25577201496016, -76.00921166833841 31.97862812843775 C-76.48444859483801 31.768254838478917, -76.95968552133763 31.557881548520083, -78.03148899955575 31.083425942633465 C-78.7666233127497 30.699906842316178, -79.50175762594367 30.31638774199889, -79.99225554413584 30.06049529225694 C-80.69326483957104 29.635539337776237, -81.39427413500624 29.210583383295532, -81.88345409176391 28.914039618768516 C-82.60322118883809 28.41196125006502, -83.32298828591227 27.909882881361522, -83.69731330194695 27.648769954444507 C-84.24707053456298 27.21035319108759, -84.796827767179 26.771936427730676, -85.42637963811869 26.269885563735144 C-85.96922985463475 25.776883360124923, -86.5120800711508 25.283881156514703, -87.06354799582027 24.783052578371617 C-87.54336972977791 24.287597243963365, -88.02319146373556 23.792141909555113, -88.60209089909839 23.19438071401543 C-89.02089494274269 22.70242965372566, -89.43969898638699 22.210478593435887, -90.03568614514703 21.51039816412631 C-90.52790168624782 20.850874180809523, -91.02011722734862 20.19135019749273, -91.35844278359497 19.738024774214864 C-91.81682784215958 19.03382223063667, -92.27521290072418 18.32961968705848, -92.56492532368443 17.884543606713134 C-92.86472251570608 17.352223334521124, -93.16451970772773 16.819903062329118, -93.65017606986851 15.95757101330882 C-94.02568589188402 15.177816833270514, -94.40119571389955 14.398062653232207, -94.60973549404552 13.965025337722599 C-94.891478680095 13.269114221046447, -95.17322186614449 12.573203104370295, -95.43966056071673 11.915094377535134 C-95.58650415886119 11.472824856274116, -95.73334775700563 11.0305553350131, -96.13654092976479 9.81620173877062 C-96.2669055183863 9.319065061986707, -96.3972701070078 8.821928385202796, -96.69751297027291 7.676972221492855 C-96.82642369433157 7.015042898742828, -96.95533441839024 6.353113575992801, -97.12027152779854 5.5061963786516 C-97.18760312545676 4.983985803342185, -97.254934723115 4.461775228032771, -97.40307939674733 3.3127943938150466 C-97.44174673957818 2.7105193175072877, -97.48041408240903 2.108244241199529, -97.54477445892374 1.1057794262221075 C-97.54477445892374 0.3931173442684248, -97.54477445892374 -0.3195447376852578, -97.54477445892374 -1.1057794262220908 C-97.50518056256834 -1.7224863215753234, -97.46558666621293 -2.339193216928556, -97.40307939674733 -3.312794393814999 C-97.29097522961949 -4.182252176586874, -97.17887106249165 -5.051709959358749, -97.12027152779854 -5.506196378651584 C-96.99182886957225 -6.165722282278156, -96.86338621134595 -6.825248185904728, -96.69751297027292 -7.676972221492839 C-96.50250505993807 -8.420621900562594, -96.30749714960322 -9.164271579632349, -96.1365409297648 -9.816201738770602 C-95.88223953772852 -10.582117014159438, -95.62793814569224 -11.348032289548275, -95.43966056071675 -11.91509437753509 C-95.22953872081571 -12.434099384520074, -95.01941688091466 -12.953104391505061, -94.60973549404554 -13.965025337722581 C-94.23640059431636 -14.740263245097399, -93.86306569458719 -15.515501152472217, -93.65017606986851 -15.957571013308804 C-93.38376302076439 -16.430614359239705, -93.11734997166026 -16.903657705170605, -92.56492532368443 -17.884543606713123 C-92.25135597101838 -18.366270337569212, -91.93778661835232 -18.847997068425297, -91.35844278359498 -19.738024774214853 C-90.91316079708098 -20.33466207012013, -90.46787881056696 -20.93129936602541, -90.03568614514704 -21.5103981641263 C-89.6576165670853 -21.954500203286038, -89.27954698902357 -22.398602242445772, -88.6020908990984 -23.194380714015416 C-88.17206899364204 -23.63841363685414, -87.74204708818567 -24.082446559692862, -87.0635479958203 -24.78305257837158 C-86.69489553085494 -25.11785299304341, -86.32624306588957 -25.45265340771524, -85.42637963811873 -26.269885563735116 C-85.07123213996249 -26.55310624264288, -84.71608464180625 -26.836326921550647, -83.69731330194696 -27.648769954444496 C-83.04078503832764 -28.106735650494862, -82.38425677470832 -28.56470134654523, -81.88345409176395 -28.914039618768488 C-81.35969008493443 -29.231548437687497, -80.83592607810492 -29.549057256606506, -79.99225554413586 -30.06049529225693 C-79.47529496112412 -30.3301932972851, -78.95833437811238 -30.599891302313267, -78.03148899955576 -31.083425942633458 C-77.25148300173099 -31.428711459814654, -76.47147700390622 -31.77399697699585, -76.00921166833842 -31.97862812843774 C-75.44750781404994 -32.18534033914942, -74.88580395976145 -32.39205254986109, -73.93373352181494 -32.74242327186806 C-73.44373660206114 -32.887851785604674, -72.95373968230733 -33.033280299341286, -71.81358314487804 -33.3716727748465 C-71.02958556562686 -33.55061510624826, -70.24558798637568 -33.729557437650016, -69.65747269019735 -33.86379091619175 C-69.19365539345574 -33.93877729977208, -68.72983809671413 -34.01376368335241, -67.47426207811549 -34.21675547690199 C-66.812431915468 -34.28060143672537, -66.1506017528205 -34.344447396548745, -65.2729225893346 -34.4291160498866 C-64.62190191116721 -34.44999301590055, -63.97088123299983 -34.470869981914504, -63.06250000000001 -34.5 C-63.06250000000001 -34.5, -63.0625 -34.5, -63.0625 -34.5" stroke="none" stroke-width="0" fill="#d4edda" style="fill:#d4edda !important;stroke:#5a9a6f !important;stroke-width:2px !important"/><path d="M-63.0625 -34.5 C-16.985876422587758 -34.5, 29.090747154824484 -34.5, 63.0625 -34.5 M-63.0625 -34.5 C-33.94469445345257 -34.5, -4.826888906905133 -34.5, 63.0625 -34.5 M63.0625 -34.5 C63.0625 -34.5, 63.0625 -34.5, 63.0625 -34.5 M63.0625 -34.5 C63.0625 -34.5, 63.0625 -34.5, 63.0625 -34.5 M63.0625 -34.5 C63.86943842622351 -34.474123055281375, 64.67637685244702 -34.44824611056275, 65.2729225893346 -34.4291160498866 M63.0625 -34.5 C63.698038336330114 -34.47961952255422, 64.33357667266023 -34.45923904510844, 65.2729225893346 -34.4291160498866 M65.2729225893346 -34.4291160498866 C66.10066549562062 -34.34926468722368, 66.92840840190665 -34.269413324560766, 67.47426207811546 -34.216755476901994 M65.2729225893346 -34.4291160498866 C65.8048769135047 -34.37779905600259, 66.33683123767482 -34.32648206211858, 67.47426207811546 -34.216755476901994 M67.47426207811546 -34.216755476901994 C68.15286781228662 -34.10704376446727, 68.83147354645777 -33.99733205203255, 69.65747269019734 -33.86379091619176 M67.47426207811546 -34.216755476901994 C68.08121371253296 -34.1186282436296, 68.68816534695044 -34.0205010103572, 69.65747269019734 -33.86379091619176 M69.65747269019734 -33.86379091619176 C70.10306046462755 -33.76208841441004, 70.54864823905775 -33.66038591262831, 71.813583144878 -33.371672774846516 M69.65747269019734 -33.86379091619176 C70.26277096183104 -33.72563553563173, 70.86806923346475 -33.587480155071695, 71.813583144878 -33.371672774846516 M71.813583144878 -33.371672774846516 C72.39123064945053 -33.200230027623014, 72.96887815402306 -33.02878728039951, 73.93373352181491 -32.74242327186807 M71.813583144878 -33.371672774846516 C72.38832670997324 -33.201091901616785, 72.96307027506849 -33.03051102838705, 73.93373352181491 -32.74242327186807 M73.93373352181491 -32.74242327186807 C74.70884159780746 -32.457176334882305, 75.4839496738 -32.171929397896534, 76.00921166833841 -31.97862812843775 M73.93373352181491 -32.74242327186807 C74.63278157387822 -32.485167126779416, 75.33182962594152 -32.22791098169076, 76.00921166833841 -31.97862812843775 M76.00921166833841 -31.97862812843775 C76.64936501012848 -31.695251233501473, 77.28951835191855 -31.411874338565195, 78.03148899955575 -31.08342594263346 M76.00921166833841 -31.97862812843775 C76.46562837919916 -31.77658598966038, 76.92204509005991 -31.574543850883007, 78.03148899955575 -31.08342594263346 M78.03148899955575 -31.08342594263346 C78.64045746126156 -30.765727486224453, 79.24942592296738 -30.448029029815448, 79.99225554413584 -30.060495292256938 M78.03148899955575 -31.08342594263346 C78.70503484359693 -30.73203750722388, 79.3785806876381 -30.3806490718143, 79.99225554413584 -30.060495292256938 M79.99225554413584 -30.060495292256938 C80.39883306988946 -29.814025606830345, 80.80541059564308 -29.567555921403752, 81.88345409176392 -28.914039618768506 M79.99225554413584 -30.060495292256938 C80.62674258993141 -29.675865516435906, 81.26122963572699 -29.291235740614876, 81.88345409176392 -28.914039618768506 M81.88345409176392 -28.914039618768506 C82.4019272269061 -28.55237520403361, 82.92040036204826 -28.190710789298713, 83.69731330194695 -27.648769954444504 M81.88345409176392 -28.914039618768506 C82.5329615251498 -28.460971349962147, 83.18246895853568 -28.007903081155792, 83.69731330194695 -27.648769954444504 M83.69731330194695 -27.648769954444504 C84.20061977420656 -27.24739643636518, 84.70392624646618 -26.846022918285858, 85.42637963811869 -26.26988556373514 M83.69731330194695 -27.648769954444504 C84.15536610782618 -27.283485031052894, 84.61341891370542 -26.918200107661285, 85.42637963811869 -26.26988556373514 M85.42637963811869 -26.26988556373514 C86.05921269680202 -25.69516332368414, 86.69204575548534 -25.12044108363314, 87.06354799582027 -24.783052578371603 M85.42637963811869 -26.26988556373514 C85.98085088980895 -25.766329443455454, 86.5353221414992 -25.262773323175765, 87.06354799582027 -24.783052578371603 M87.06354799582027 -24.783052578371603 C87.41920658937784 -24.41580588040985, 87.77486518293539 -24.048559182448095, 88.60209089909839 -23.194380714015438 M87.06354799582027 -24.783052578371603 C87.56817089651041 -24.26198800309839, 88.07279379720056 -23.740923427825177, 88.60209089909839 -23.194380714015438 M88.60209089909839 -23.194380714015438 C89.00021055711159 -22.726726710062835, 89.3983302151248 -22.259072706110228, 90.03568614514703 -21.510398164126308 M88.60209089909839 -23.194380714015438 C88.90465699139713 -22.838969365502948, 89.2072230836959 -22.483558016990454, 90.03568614514703 -21.510398164126308 M90.03568614514703 -21.510398164126308 C90.33315579073093 -21.11181593908609, 90.63062543631483 -20.71323371404587, 91.35844278359497 -19.73802477421486 M90.03568614514703 -21.510398164126308 C90.3426159432112 -21.099140196600146, 90.64954574127538 -20.687882229073985, 91.35844278359497 -19.73802477421486 M91.35844278359497 -19.73802477421486 C91.70741585182274 -19.201908429027203, 92.05638892005052 -18.66579208383954, 92.56492532368443 -17.88454360671312 M91.35844278359497 -19.73802477421486 C91.73407077236313 -19.160959313228823, 92.10969876113128 -18.58389385224278, 92.56492532368443 -17.88454360671312 M92.56492532368443 -17.88454360671312 C92.92003488569236 -17.254010620625664, 93.27514444770028 -16.623477634538208, 93.65017606986851 -15.957571013308817 M92.56492532368443 -17.88454360671312 C92.90049735170493 -17.28870149061019, 93.23606937972544 -16.69285937450726, 93.65017606986851 -15.957571013308817 M93.65017606986851 -15.957571013308817 C93.86704185454812 -15.507244571237143, 94.08390763922773 -15.05691812916547, 94.60973549404552 -13.965025337722595 M93.65017606986851 -15.957571013308817 C93.86727904949699 -15.506752030850661, 94.08438202912548 -15.055933048392506, 94.60973549404552 -13.965025337722595 M94.60973549404552 -13.965025337722595 C94.78691896012104 -13.527378750906806, 94.96410242619655 -13.089732164091016, 95.43966056071673 -11.91509437753513 M94.60973549404552 -13.965025337722595 C94.77936958225189 -13.5460258602009, 94.94900367045825 -13.127026382679201, 95.43966056071673 -11.91509437753513 M95.43966056071673 -11.91509437753513 C95.57923681149596 -11.494712948643633, 95.71881306227517 -11.074331519752137, 96.13654092976479 -9.816201738770628 M95.43966056071673 -11.91509437753513 C95.63477875290607 -11.327429470522945, 95.82989694509541 -10.73976456351076, 96.13654092976479 -9.816201738770628 M96.13654092976479 -9.816201738770628 C96.32375983450792 -9.102254913798507, 96.51097873925104 -8.388308088826387, 96.69751297027292 -7.67697222149285 M96.13654092976479 -9.816201738770628 C96.2916038479167 -9.224879627163553, 96.44666676606862 -8.633557515556475, 96.69751297027292 -7.67697222149285 M96.69751297027292 -7.67697222149285 C96.81996312530944 -7.048216555229762, 96.94241328034596 -6.419460888966674, 97.12027152779854 -5.506196378651596 M96.69751297027292 -7.67697222149285 C96.80737626373559 -7.112847429177319, 96.91723955719827 -6.548722636861787, 97.12027152779854 -5.506196378651596 M97.12027152779854 -5.506196378651596 C97.17697013161128 -5.066453203885622, 97.23366873542403 -4.626710029119649, 97.40307939674733 -3.312794393815027 M97.12027152779854 -5.506196378651596 C97.20676897023007 -4.835339296004574, 97.2932664126616 -4.164482213357552, 97.40307939674733 -3.312794393815027 M97.40307939674733 -3.312794393815027 C97.44467710823494 -2.664876460327094, 97.48627481972257 -2.0169585268391605, 97.54477445892374 -1.1057794262221032 M97.40307939674733 -3.312794393815027 C97.43804260439512 -2.768214212907538, 97.4730058120429 -2.2236340320000494, 97.54477445892374 -1.1057794262221032 M97.54477445892374 -1.1057794262221032 C97.54477445892374 -0.33216405915066205, 97.54477445892374 0.44145130792077913, 97.54477445892374 1.1057794262220948 M97.54477445892374 -1.1057794262221032 C97.54477445892374 -0.47272025459394285, 97.54477445892374 0.16033891703421754, 97.54477445892374 1.1057794262220948 M97.54477445892374 1.1057794262220948 C97.50272998441054 1.7606560544541494, 97.46068550989733 2.4155326826862042, 97.40307939674733 3.3127943938150035 M97.54477445892374 1.1057794262220948 C97.5003283695381 1.798063144641143, 97.45588228015244 2.490346863060191, 97.40307939674733 3.3127943938150035 M97.40307939674733 3.3127943938150035 C97.31499072017 3.9959927742720693, 97.22690204359269 4.679191154729136, 97.12027152779854 5.506196378651572 M97.40307939674733 3.3127943938150035 C97.2961897544527 4.141809351704904, 97.18930011215807 4.9708243095948035, 97.12027152779854 5.506196378651572 M97.12027152779854 5.506196378651572 C96.97128547584991 6.271208267194534, 96.82229942390128 7.036220155737496, 96.69751297027292 7.676972221492843 M97.12027152779854 5.506196378651572 C96.9775685746735 6.238945882668822, 96.83486562154846 6.971695386686072, 96.69751297027292 7.676972221492843 M96.69751297027292 7.676972221492843 C96.54829595301628 8.246001379356793, 96.39907893575963 8.815030537220741, 96.13654092976479 9.816201738770607 M96.69751297027292 7.676972221492843 C96.52242629452682 8.344653599158018, 96.34733961878071 9.012334976823192, 96.13654092976479 9.816201738770607 M96.13654092976479 9.816201738770607 C95.99464402200579 10.243572616738714, 95.8527471142468 10.670943494706819, 95.43966056071673 11.915094377535107 M96.13654092976479 9.816201738770607 C95.9321321973174 10.43184827279347, 95.72772346487001 11.047494806816335, 95.43966056071673 11.915094377535107 M95.43966056071673 11.915094377535107 C95.13177889886991 12.675568034783762, 94.82389723702309 13.436041692032415, 94.60973549404554 13.965025337722585 M95.43966056071673 11.915094377535107 C95.24263585713173 12.401749204603584, 95.04561115354672 12.888404031672062, 94.60973549404554 13.965025337722585 M94.60973549404554 13.965025337722585 C94.27740796864884 14.655110554878744, 93.94508044325215 15.345195772034902, 93.65017606986851 15.957571013308808 M94.60973549404554 13.965025337722585 C94.41388425782041 14.371714620289207, 94.21803302159528 14.778403902855832, 93.65017606986851 15.957571013308808 M93.65017606986851 15.957571013308808 C93.2698646502508 16.63285244954725, 92.88955323063308 17.308133885785693, 92.56492532368445 17.88454360671311 M93.65017606986851 15.957571013308808 C93.22487054141327 16.712744045935846, 92.79956501295804 17.467917078562884, 92.56492532368445 17.88454360671311 M92.56492532368445 17.88454360671311 C92.27103584265538 18.336036769949313, 91.97714636162631 18.787529933185517, 91.35844278359498 19.738024774214843 M92.56492532368445 17.88454360671311 C92.23265972406158 18.394992793540126, 91.9003941244387 18.905441980367144, 91.35844278359498 19.738024774214843 M91.35844278359498 19.738024774214843 C90.84449163916774 20.42667248583486, 90.33054049474052 21.115320197454878, 90.03568614514703 21.5103981641263 M91.35844278359498 19.738024774214843 C91.08283349867025 20.10731610749159, 90.80722421374553 20.476607440768337, 90.03568614514703 21.5103981641263 M90.03568614514703 21.5103981641263 C89.72268471215227 21.878067457608026, 89.40968327915752 22.245736751089748, 88.6020908990984 23.194380714015416 M90.03568614514703 21.5103981641263 C89.60286373294268 22.01881599779448, 89.17004132073832 22.52723383146266, 88.6020908990984 23.194380714015416 M88.6020908990984 23.194380714015416 C88.13641016436652 23.675234305725443, 87.67072942963463 24.15608789743547, 87.06354799582029 24.783052578371596 M88.6020908990984 23.194380714015416 C88.18690355301125 23.623095736365457, 87.7717162069241 24.051810758715494, 87.06354799582029 24.783052578371596 M87.06354799582029 24.783052578371596 C86.42091899847881 25.366671230725604, 85.77829000113732 25.95028988307961, 85.42637963811873 26.26988556373512 M87.06354799582029 24.783052578371596 C86.65132240542384 25.15742495267821, 86.2390968150274 25.531797326984822, 85.42637963811873 26.26988556373512 M85.42637963811873 26.26988556373512 C84.93695131401054 26.660191627976708, 84.44752298990237 27.0504976922183, 83.69731330194696 27.6487699544445 M85.42637963811873 26.26988556373512 C84.85830506855068 26.722909915866463, 84.29023049898264 27.175934267997807, 83.69731330194696 27.6487699544445 M83.69731330194696 27.6487699544445 C83.074037177888 28.08354039739948, 82.45076105382904 28.51831084035446, 81.88345409176395 28.91403961876849 M83.69731330194696 27.6487699544445 C83.06505050905571 28.08980910855026, 82.43278771616447 28.530848262656022, 81.88345409176395 28.91403961876849 M81.88345409176395 28.91403961876849 C81.20921928646165 29.322764719986264, 80.53498448115934 29.73148982120404, 79.99225554413586 30.060495292256935 M81.88345409176395 28.91403961876849 C81.17512257737788 29.343434345407356, 80.46679106299179 29.77282907204622, 79.99225554413586 30.060495292256935 M79.99225554413586 30.060495292256935 C79.371196565895 30.384501363397927, 78.75013758765414 30.708507434538923, 78.03148899955576 31.083425942633458 M79.99225554413586 30.060495292256935 C79.24941085038215 30.44803689317351, 78.50656615662844 30.835578494090083, 78.03148899955576 31.083425942633458 M78.03148899955576 31.083425942633458 C77.56228430417039 31.291128942817796, 77.09307960878503 31.498831943002134, 76.00921166833842 31.978628128437748 M78.03148899955576 31.083425942633458 C77.49998019374317 31.318709124318154, 76.96847138793059 31.553992306002854, 76.00921166833842 31.978628128437748 M76.00921166833842 31.978628128437748 C75.49951464272962 32.16620134544944, 74.98981761712083 32.35377456246113, 73.93373352181493 32.74242327186806 M76.00921166833842 31.978628128437748 C75.58488887845552 32.13478283751153, 75.16056608857261 32.29093754658531, 73.93373352181493 32.74242327186806 M73.93373352181493 32.74242327186806 C73.14020637518584 32.977937963678585, 72.34667922855675 33.21345265548911, 71.81358314487804 33.37167277484651 M73.93373352181493 32.74242327186806 C73.28313206770132 32.935518368372264, 72.6325306135877 33.128613464876466, 71.81358314487804 33.37167277484651 M71.81358314487804 33.37167277484651 C71.25689142288213 33.49873402763909, 70.70019970088622 33.625795280431674, 69.65747269019735 33.86379091619175 M71.81358314487804 33.37167277484651 C71.11239926079566 33.53171342073585, 70.41121537671329 33.691754066625194, 69.65747269019735 33.86379091619175 M69.65747269019735 33.86379091619175 C69.03090803706313 33.96508903022904, 68.40434338392892 34.06638714426632, 67.47426207811547 34.21675547690199 M69.65747269019735 33.86379091619175 C69.10433278100601 33.95321828704574, 68.55119287181468 34.04264565789974, 67.47426207811547 34.21675547690199 M67.47426207811547 34.21675547690199 C66.71758798483329 34.28975091664718, 65.96091389155112 34.36274635639237, 65.2729225893346 34.4291160498866 M67.47426207811547 34.21675547690199 C66.92704421464889 34.26954492606484, 66.37982635118232 34.3223343752277, 65.2729225893346 34.4291160498866 M65.2729225893346 34.4291160498866 C64.65888542396114 34.44880702662929, 64.04484825858766 34.468498003371984, 63.06250000000001 34.5 M65.2729225893346 34.4291160498866 C64.68470914827807 34.44797891005328, 64.09649570722156 34.46684177021995, 63.06250000000001 34.5 M63.06250000000001 34.5 C63.06250000000001 34.5, 63.06250000000001 34.5, 63.0625 34.5 M63.06250000000001 34.5 C63.06250000000001 34.5, 63.0625 34.5, 63.0625 34.5 M63.0625 34.5 C27.61201677510177 34.5, -7.8384664497964565 34.5, -63.06249999999999 34.5 M63.0625 34.5 C31.183152429934225 34.5, -0.6961951401315503 34.5, -63.06249999999999 34.5 M-63.06249999999999 34.5 C-63.600871812986114 34.4827354638347, -64.13924362597224 34.465470927669394, -65.27292258933458 34.4291160498866 M-63.06249999999999 34.5 C-63.67587523951294 34.4803302499313, -64.2892504790259 34.46066049986259, -65.27292258933458 34.4291160498866 M-65.27292258933458 34.4291160498866 C-65.96348941865811 34.36249789838988, -66.65405624798166 34.29587974689316, -67.47426207811546 34.21675547690199 M-65.27292258933458 34.4291160498866 C-66.00398668771633 34.35859117554893, -66.7350507860981 34.28806630121125, -67.47426207811546 34.21675547690199 M-67.47426207811546 34.21675547690199 C-68.18066356429144 34.102549962842396, -68.88706505046741 33.98834444878281, -69.65747269019734 33.86379091619175 M-67.47426207811546 34.21675547690199 C-68.17609401519456 34.103288732102996, -68.87792595227367 33.98982198730401, -69.65747269019734 33.86379091619175 M-69.65747269019734 33.86379091619175 C-70.44182394807612 33.684767859951215, -71.2261752059549 33.50574480371068, -71.813583144878 33.371672774846516 M-69.65747269019734 33.86379091619175 C-70.38131402534287 33.69857885495093, -71.10515536048842 33.53336679371011, -71.813583144878 33.371672774846516 M-71.813583144878 33.371672774846516 C-72.337508131618 33.21617458892046, -72.86143311835798 33.06067640299441, -73.9337335218149 32.74242327186808 M-71.813583144878 33.371672774846516 C-72.65091817234712 33.12315613395493, -73.48825319981624 32.87463949306335, -73.9337335218149 32.74242327186808 M-73.9337335218149 32.74242327186808 C-74.61877407635266 32.49032201535271, -75.30381463089044 32.23822075883734, -76.00921166833841 31.97862812843775 M-73.9337335218149 32.74242327186808 C-74.54779441496473 32.51644318687227, -75.16185530811454 32.29046310187646, -76.00921166833841 31.97862812843775 M-76.00921166833841 31.97862812843775 C-76.54323689530868 31.742231001753527, -77.07726212227895 31.505833875069303, -78.03148899955575 31.083425942633465 M-76.00921166833841 31.97862812843775 C-76.51614163034152 31.75422527180201, -77.02307159234465 31.529822415166265, -78.03148899955575 31.083425942633465 M-78.03148899955575 31.083425942633465 C-78.57543025521116 30.799652137969037, -79.11937151086659 30.515878333304606, -79.99225554413584 30.06049529225694 M-78.03148899955575 31.083425942633465 C-78.62794897191347 30.77225315710529, -79.22440894427118 30.461080371577115, -79.99225554413584 30.06049529225694 M-79.99225554413584 30.06049529225694 C-80.61625553158278 29.68222283283565, -81.24025551902972 29.303950373414356, -81.88345409176391 28.914039618768516 M-79.99225554413584 30.06049529225694 C-80.70843439231797 29.626343465754868, -81.42461324050008 29.19219163925279, -81.88345409176391 28.914039618768516 M-81.88345409176391 28.914039618768516 C-82.3363806507951 28.598097658063086, -82.7893072098263 28.282155697357652, -83.69731330194695 27.648769954444507 M-81.88345409176391 28.914039618768516 C-82.60696379928497 28.40935056703227, -83.33047350680603 27.90466151529602, -83.69731330194695 27.648769954444507 M-83.69731330194695 27.648769954444507 C-84.38757190300522 27.098307088653335, -85.0778305040635 26.547844222862167, -85.42637963811869 26.269885563735144 M-83.69731330194695 27.648769954444507 C-84.05309965540908 27.365039805430946, -84.4088860088712 27.08130965641739, -85.42637963811869 26.269885563735144 M-85.42637963811869 26.269885563735144 C-85.82322699086994 25.90947929797203, -86.22007434362119 25.549073032208916, -87.06354799582027 24.783052578371617 M-85.42637963811869 26.269885563735144 C-85.81340604251044 25.918398423424073, -86.2004324469022 25.566911283113, -87.06354799582027 24.783052578371617 M-87.06354799582027 24.783052578371617 C-87.43948279629535 24.394869032059972, -87.81541759677043 24.006685485748324, -88.60209089909839 23.19438071401543 M-87.06354799582027 24.783052578371617 C-87.60316909283934 24.225849491983436, -88.14279018985839 23.668646405595254, -88.60209089909839 23.19438071401543 M-88.60209089909839 23.19438071401543 C-88.8939142293013 22.85158842514119, -89.18573755950422 22.50879613626695, -90.03568614514703 21.51039816412631 M-88.60209089909839 23.19438071401543 C-89.06275579763162 22.653257511622993, -89.52342069616486 22.112134309230555, -90.03568614514703 21.51039816412631 M-90.03568614514703 21.51039816412631 C-90.35144763664728 21.087306531979625, -90.66720912814753 20.664214899832942, -91.35844278359497 19.738024774214864 M-90.03568614514703 21.51039816412631 C-90.5385423964799 20.836616598487176, -91.04139864781278 20.16283503284804, -91.35844278359497 19.738024774214864 M-91.35844278359497 19.738024774214864 C-91.83453367011461 19.006621324217218, -92.31062455663425 18.275217874219567, -92.56492532368443 17.884543606713134 M-91.35844278359497 19.738024774214864 C-91.69432008487031 19.222027043771956, -92.03019738614566 18.706029313329047, -92.56492532368443 17.884543606713134 M-92.56492532368443 17.884543606713134 C-92.79588200964646 17.474456623887104, -93.0268386956085 17.06436964106107, -93.65017606986851 15.95757101330882 M-92.56492532368443 17.884543606713134 C-92.94986197645927 17.20104960064858, -93.3347986292341 16.517555594584024, -93.65017606986851 15.95757101330882 M-93.65017606986851 15.95757101330882 C-93.96376709418283 15.306392541547089, -94.27735811849715 14.655214069785357, -94.60973549404552 13.965025337722599 M-93.65017606986851 15.95757101330882 C-93.86956739768668 15.502000226871962, -94.08895872550485 15.046429440435103, -94.60973549404552 13.965025337722599 M-94.60973549404552 13.965025337722599 C-94.84482563289534 13.384348149604943, -95.07991577174515 12.803670961487285, -95.43966056071673 11.915094377535134 M-94.60973549404552 13.965025337722599 C-94.90841405306763 13.227283522380915, -95.20709261208972 12.489541707039233, -95.43966056071673 11.915094377535134 M-95.43966056071673 11.915094377535134 C-95.64469956620349 11.297549561538066, -95.84973857169025 10.680004745540996, -96.13654092976479 9.81620173877062 M-95.43966056071673 11.915094377535134 C-95.5946307343749 11.448348905620763, -95.74960090803307 10.981603433706393, -96.13654092976479 9.81620173877062 M-96.13654092976479 9.81620173877062 C-96.3473570610784 9.012268461782554, -96.558173192392 8.208335184794487, -96.69751297027291 7.676972221492855 M-96.13654092976479 9.81620173877062 C-96.31995806453705 9.116752710394964, -96.50337519930929 8.417303682019309, -96.69751297027291 7.676972221492855 M-96.69751297027291 7.676972221492855 C-96.84745311595448 6.907061263279005, -96.99739326163606 6.1371503050651555, -97.12027152779854 5.5061963786516 M-96.69751297027291 7.676972221492855 C-96.7868277660231 7.2183596220044155, -96.87614256177329 6.759747022515977, -97.12027152779854 5.5061963786516 M-97.12027152779854 5.5061963786516 C-97.17726092627323 5.064197857911407, -97.23425032474795 4.622199337171214, -97.40307939674733 3.3127943938150466 M-97.12027152779854 5.5061963786516 C-97.22345330873584 4.705938861249084, -97.32663508967315 3.905681343846568, -97.40307939674733 3.3127943938150466 M-97.40307939674733 3.3127943938150466 C-97.43482355057655 2.818353574505281, -97.46656770440576 2.323912755195515, -97.54477445892374 1.1057794262221075 M-97.40307939674733 3.3127943938150466 C-97.44383515544706 2.677990554610384, -97.4845909141468 2.0431867154057217, -97.54477445892374 1.1057794262221075 M-97.54477445892374 1.1057794262221075 C-97.54477445892374 0.5105972980422104, -97.54477445892374 -0.08458483013768658, -97.54477445892374 -1.1057794262220908 M-97.54477445892374 1.1057794262221075 C-97.54477445892374 0.29039138903298545, -97.54477445892374 -0.5249966481561366, -97.54477445892374 -1.1057794262220908 M-97.54477445892374 -1.1057794262220908 C-97.50603050712778 -1.7092477489992368, -97.4672865553318 -2.312716071776383, -97.40307939674733 -3.312794393814999 M-97.54477445892374 -1.1057794262220908 C-97.49973929981147 -1.807238381121807, -97.45470414069919 -2.5086973360215232, -97.40307939674733 -3.312794393814999 M-97.40307939674733 -3.312794393814999 C-97.29673877451793 -4.13755126049522, -97.19039815228854 -4.962308127175441, -97.12027152779854 -5.506196378651584 M-97.40307939674733 -3.312794393814999 C-97.31907456609679 -3.964319271710566, -97.23506973544625 -4.615844149606133, -97.12027152779854 -5.506196378651584 M-97.12027152779854 -5.506196378651584 C-96.97312004451105 -6.261788144855806, -96.82596856122358 -7.0173799110600275, -96.69751297027292 -7.676972221492839 M-97.12027152779854 -5.506196378651584 C-97.01474488190337 -6.0480534022587555, -96.9092182360082 -6.589910425865927, -96.69751297027292 -7.676972221492839 M-96.69751297027292 -7.676972221492839 C-96.48917714216103 -8.4714470274026, -96.28084131404911 -9.26592183331236, -96.1365409297648 -9.816201738770602 M-96.69751297027292 -7.676972221492839 C-96.51112300716278 -8.387757932752843, -96.32473304405264 -9.098543644012844, -96.1365409297648 -9.816201738770602 M-96.1365409297648 -9.816201738770602 C-95.93411789400324 -10.425867670753586, -95.73169485824165 -11.03553360273657, -95.43966056071675 -11.91509437753509 M-96.1365409297648 -9.816201738770602 C-95.96953894030105 -10.319185122881887, -95.80253695083728 -10.82216850699317, -95.43966056071675 -11.91509437753509 M-95.43966056071675 -11.91509437753509 C-95.20451792178066 -12.49590124188087, -94.96937528284458 -13.076708106226652, -94.60973549404554 -13.965025337722581 M-95.43966056071675 -11.91509437753509 C-95.16502061930733 -12.59346034261839, -94.89038067789792 -13.27182630770169, -94.60973549404554 -13.965025337722581 M-94.60973549404554 -13.965025337722581 C-94.29874239242545 -14.610809167423076, -93.98774929080537 -15.25659299712357, -93.65017606986851 -15.957571013308804 M-94.60973549404554 -13.965025337722581 C-94.36877733360836 -14.46538011354908, -94.12781917317119 -14.965734889375577, -93.65017606986851 -15.957571013308804 M-93.65017606986851 -15.957571013308804 C-93.298634251859 -16.581769108653827, -92.94709243384948 -17.205967203998846, -92.56492532368443 -17.884543606713123 M-93.65017606986851 -15.957571013308804 C-93.38727902150427 -16.424371343892368, -93.12438197314002 -16.891171674475927, -92.56492532368443 -17.884543606713123 M-92.56492532368443 -17.884543606713123 C-92.20357750406527 -18.439670893123996, -91.84222968444608 -18.994798179534865, -91.35844278359498 -19.738024774214853 M-92.56492532368443 -17.884543606713123 C-92.27690501172965 -18.327020150158653, -91.98888469977487 -18.76949669360418, -91.35844278359498 -19.738024774214853 M-91.35844278359498 -19.738024774214853 C-90.95649232420844 -20.276601771352667, -90.55454186482189 -20.815178768490476, -90.03568614514704 -21.5103981641263 M-91.35844278359498 -19.738024774214853 C-90.89116618759948 -20.364132843075176, -90.423889591604 -20.9902409119355, -90.03568614514704 -21.5103981641263 M-90.03568614514704 -21.5103981641263 C-89.50731257708622 -22.13105582247827, -88.97893900902541 -22.75171348083024, -88.6020908990984 -23.194380714015416 M-90.03568614514704 -21.5103981641263 C-89.6035965071289 -22.017955239539322, -89.17150686911076 -22.52551231495234, -88.6020908990984 -23.194380714015416 M-88.6020908990984 -23.194380714015416 C-88.1815927521914 -23.62857957423679, -87.76109460528443 -24.06277843445817, -87.0635479958203 -24.78305257837158 M-88.6020908990984 -23.194380714015416 C-88.0464582205324 -23.768117072926106, -87.4908255419664 -24.341853431836796, -87.0635479958203 -24.78305257837158 M-87.0635479958203 -24.78305257837158 C-86.72384956261892 -25.09155770747705, -86.38415112941755 -25.400062836582524, -85.42637963811873 -26.269885563735116 M-87.0635479958203 -24.78305257837158 C-86.71418161936887 -25.100337877736994, -86.36481524291743 -25.417623177102406, -85.42637963811873 -26.269885563735116 M-85.42637963811873 -26.269885563735116 C-84.89074867023106 -26.697037006886855, -84.35511770234339 -27.124188450038595, -83.69731330194696 -27.648769954444496 M-85.42637963811873 -26.269885563735116 C-84.94305099174134 -26.655327297305636, -84.45972234536396 -27.040769030876156, -83.69731330194696 -27.648769954444496 M-83.69731330194696 -27.648769954444496 C-83.13002739664765 -28.044484044570257, -82.56274149134832 -28.44019813469602, -81.88345409176395 -28.914039618768488 M-83.69731330194696 -27.648769954444496 C-83.0889255046993 -28.073154945121193, -82.48053770745165 -28.49753993579789, -81.88345409176395 -28.914039618768488 M-81.88345409176395 -28.914039618768488 C-81.48177171281402 -29.15754183743561, -81.08008933386411 -29.401044056102727, -79.99225554413586 -30.06049529225693 M-81.88345409176395 -28.914039618768488 C-81.19006329623782 -29.334377193833042, -80.4966725007117 -29.754714768897593, -79.99225554413586 -30.06049529225693 M-79.99225554413586 -30.06049529225693 C-79.54789252744928 -30.292319193434224, -79.1035295107627 -30.52414309461152, -78.03148899955576 -31.083425942633458 M-79.99225554413586 -30.06049529225693 C-79.42757664018757 -30.35508791475266, -78.86289773623926 -30.649680537248383, -78.03148899955576 -31.083425942633458 M-78.03148899955576 -31.083425942633458 C-77.34658572786803 -31.386612304075925, -76.66168245618029 -31.68979866551839, -76.00921166833842 -31.97862812843774 M-78.03148899955576 -31.083425942633458 C-77.54604958391832 -31.29831557188752, -77.06061016828089 -31.513205201141584, -76.00921166833842 -31.97862812843774 M-76.00921166833842 -31.97862812843774 C-75.22646999153336 -32.26668430108675, -74.4437283147283 -32.554740473735755, -73.93373352181494 -32.74242327186806 M-76.00921166833842 -31.97862812843774 C-75.52834149558356 -32.15559279712668, -75.04747132282871 -32.33255746581562, -73.93373352181494 -32.74242327186806 M-73.93373352181494 -32.74242327186806 C-73.39800408447624 -32.90142495676899, -72.86227464713753 -33.06042664166991, -71.81358314487804 -33.3716727748465 M-73.93373352181494 -32.74242327186806 C-73.4558143785801 -32.88426716493139, -72.97789523534526 -33.02611105799471, -71.81358314487804 -33.3716727748465 M-71.81358314487804 -33.3716727748465 C-71.28475932918218 -33.492373359881185, -70.75593551348632 -33.61307394491586, -69.65747269019735 -33.86379091619175 M-71.81358314487804 -33.3716727748465 C-71.36125975721909 -33.474912636393704, -70.90893636956015 -33.578152497940906, -69.65747269019735 -33.86379091619175 M-69.65747269019735 -33.86379091619175 C-69.0188009701994 -33.96704640690786, -68.38012925020143 -34.07030189762397, -67.47426207811549 -34.21675547690199 M-69.65747269019735 -33.86379091619175 C-69.1868183382783 -33.939882661831014, -68.71616398635926 -34.015974407470274, -67.47426207811549 -34.21675547690199 M-67.47426207811549 -34.21675547690199 C-66.75221893875445 -34.28641011017222, -66.03017579939343 -34.35606474344245, -65.2729225893346 -34.4291160498866 M-67.47426207811549 -34.21675547690199 C-66.9570181705519 -34.26665337458783, -66.43977426298832 -34.31655127227368, -65.2729225893346 -34.4291160498866 M-65.2729225893346 -34.4291160498866 C-64.42617714883154 -34.45626952807352, -63.5794317083285 -34.48342300626044, -63.06250000000001 -34.5 M-65.2729225893346 -34.4291160498866 C-64.47907657196491 -34.45457314653611, -63.685230554595215 -34.480030243185624, -63.06250000000001 -34.5 M-63.06250000000001 -34.5 C-63.06250000000001 -34.5, -63.06250000000001 -34.5, -63.0625 -34.5 M-63.06250000000001 -34.5 C-63.06250000000001 -34.5, -63.0625 -34.5, -63.0625 -34.5" stroke="#5a9a6f" stroke-width="2" fill="none" stroke-dasharray="0 0" style="fill:#d4edda !important;stroke:#5a9a6f !important;stroke-width:2px !important"/></g><g class="label" style="color:#1a1a1a !important" transform="translate(-79.9375, -25.5)"><rect/><foreignObject width="159.875" height="51"><div style="color: rgb(26, 26, 26) !important; display: table-cell; white-space: nowrap; line-height: 1.5; max-width: 200px; text-align: center;" xmlns="http://www.w3.org/1999/xhtml"><span style="color:#1a1a1a !important" class="nodeLabel"><p>Basketball Reference<br />team game logs</p></span></div></foreignObject></g></g><g class="node default ingest" id="my-svg-flowchart-N01-1" data-look="classic" transform="translate(188.64453125, 191)"><rect class="basic label-container" style="fill:#eef7f0 !important;stroke:#5a9a6f !important;stroke-width:2px !important" x="-136" y="-69" width="272" height="138"/><g class="label" style="color:#1a1a1a !important" transform="translate(-100, -51)"><rect/><foreignObject width="200" height="102"><div style="color: rgb(26, 26, 26) !important; display: table; white-space: break-spaces; line-height: 1.5; max-width: 200px; text-align: center; width: 200px;" xmlns="http://www.w3.org/1999/xhtml"><span style="color:#1a1a1a !important" class="nodeLabel"><p>01 Ingest<br />throttled · idempotent<br />UC Volume: raw gamelog JSON</p></span></div></foreignObject></g></g><g class="node default bronze" id="my-svg-flowchart-B01-2" data-look="classic" transform="translate(188.64453125, 339.5)"><polygon points="0,0 214.953125,0 214.953125,-69 0,-69 0,0 -8,0 222.953125,0 222.953125,-69 -8,-69 -8,0" class="label-container" transform="translate(-107.4765625,34.5)" style="fill:#fff3e0 !important;stroke:#bf7c2a !important;stroke-width:2px !important"/><g class="label" style="color:#7a4f1a !important" transform="translate(-98.4765625, -25.5)"><rect/><foreignObject width="196.953125" height="51"><div style="color: rgb(122, 79, 26) !important; display: table-cell; white-space: nowrap; line-height: 1.5; max-width: 200px; text-align: center;" xmlns="http://www.w3.org/1999/xhtml"><span style="color:#7a4f1a !important" class="nodeLabel"><p>BRONZE · 02 Auto Loader<br />gamelog_raw (VARIANT)</p></span></div></foreignObject></g></g><g class="node default silver" id="my-svg-flowchart-S01-3" data-look="classic" transform="translate(88.28125, 466.25)"><polygon points="0,0 144.5625,0 144.5625,-94.5 0,-94.5 0,0 -8,0 152.5625,0 152.5625,-94.5 -8,-94.5 -8,0" class="label-container" transform="translate(-72.28125,47.25)" style="fill:#f2f2f2 !important;stroke:#888888 !important;stroke-width:2px !important"/><g class="label" style="color:#333333 !important" transform="translate(-63.28125, -38.25)"><rect/><foreignObject width="126.5625" height="76.5"><div style="color: rgb(51, 51, 51) !important; display: table-cell; white-space: nowrap; line-height: 1.5; max-width: 200px; text-align: center;" xmlns="http://www.w3.org/1999/xhtml"><span style="color:#333333 !important" class="nodeLabel"><p>SILVER · 03<br />team_game_box<br />Four Factors</p></span></div></foreignObject></g></g><g class="node default silver" id="my-svg-flowchart-S02-4" data-look="classic" transform="translate(289.0078125, 466.25)"><polygon points="0,0 134.890625,0 134.890625,-94.5 0,-94.5 0,0 -8,0 142.890625,0 142.890625,-94.5 -8,-94.5 -8,0" class="label-container" transform="translate(-67.4453125,47.25)" style="fill:#f2f2f2 !important;stroke:#888888 !important;stroke-width:2px !important"/><g class="label" style="color:#333333 !important" transform="translate(-58.4453125, -38.25)"><rect/><foreignObject width="116.890625" height="76.5"><div style="color: rgb(51, 51, 51) !important; display: table-cell; white-space: nowrap; line-height: 1.5; max-width: 200px; text-align: center;" xmlns="http://www.w3.org/1999/xhtml"><span style="color:#333333 !important" class="nodeLabel"><p>SILVER · 03<br />games<br />home_win label</p></span></div></foreignObject></g></g><g class="node default gold" id="my-svg-flowchart-G01-5" data-look="classic" transform="translate(188.64453125, 618.5)"><polygon points="0,0 218,0 218,-120 0,-120 0,0 -8,0 226,0 226,-120 -8,-120 -8,0" class="label-container" transform="translate(-109,60)" style="fill:#fffde7 !important;stroke:#c8941a !important;stroke-width:2px !important"/><g class="label" style="color:#7a5c00 !important" transform="translate(-100, -51)"><rect/><foreignObject width="200" height="102"><div style="color: rgb(122, 92, 0) !important; display: table; white-space: break-spaces; line-height: 1.5; max-width: 200px; text-align: center; width: 200px;" xmlns="http://www.w3.org/1999/xhtml"><span style="color:#7a5c00 !important" class="nodeLabel"><p>GOLD · 04<br />fact_games · fact_team_game<br />dim_team · dim_date</p></span></div></foreignObject></g></g><g class="node default gold" id="my-svg-flowchart-G02-6" data-look="classic" transform="translate(188.64453125, 770.75)"><polygon points="0,0 132.03125,0 132.03125,-94.5 0,-94.5 0,0 -8,0 140.03125,0 140.03125,-94.5 -8,-94.5 -8,0" class="label-container" transform="translate(-66.015625,47.25)" style="fill:#fffde7 !important;stroke:#c8941a !important;stroke-width:2px !important"/><g class="label" style="color:#7a5c00 !important" transform="translate(-57.015625, -38.25)"><rect/><foreignObject width="114.03125" height="76.5"><div style="color: rgb(122, 92, 0) !important; display: table-cell; white-space: nowrap; line-height: 1.5; max-width: 200px; text-align: center;" xmlns="http://www.w3.org/1999/xhtml"><span style="color:#7a5c00 !important" class="nodeLabel"><p>GOLD · 05<br />game_features<br />leakage-safe</p></span></div></foreignObject></g></g></g></g></g><defs><filter id="my-svg-drop-shadow" height="130%" width="130%"><feDropShadow dx="4" dy="4" stdDeviation="0" flood-opacity="0.06" flood-color="#000000"/></filter></defs><defs><filter id="my-svg-drop-shadow-small" height="150%" width="150%"><feDropShadow dx="2" dy="2" stdDeviation="0" flood-opacity="0.06" flood-color="#000000"/></filter></defs><linearGradient id="my-svg-gradient" gradientUnits="objectBoundingBox" x1="0%" y1="0%" x2="100%" y2="0%"><stop offset="0%" stop-color="#aaaaaa" stop-opacity="1"/><stop offset="100%" stop-color="hsl(-120, 0%, 86.0784313725%)" stop-opacity="1"/></linearGradient><style>/* Source node — neutral green */
#SRC &gt; rect, #SRC &gt; polygon, #SRC &gt; circle, #SRC &gt; ellipse,
.node#SRC rect, .node#SRC polygon, .node#SRC circle, .node#SRC ellipse {
  fill: #d4edda !important;
  stroke: #5a9a6f !important;
}

/* Ingest subgraph */
.cluster#ING rect, .cluster#ING &gt; rect {
  fill: #eef7f0 !important;
  stroke: #5a9a6f !important;
}

/* Bronze subgraph */
.cluster#BRONZE &gt; rect, .cluster#BRONZE rect {
  fill: #fff3e0 !important;
  stroke: #bf7c2a !important;
  stroke-width: 2px !important;
}
.cluster#BRONZE .cluster-label {
  fill: #7a4f1a !important;
  font-weight: bold !important;
}

/* Silver subgraph */
.cluster#SILVER &gt; rect, .cluster#SILVER rect {
  fill: #f5f5f5 !important;
  stroke: #888888 !important;
  stroke-width: 2px !important;
}
.cluster#SILVER .cluster-label {
  fill: #444444 !important;
  font-weight: bold !important;
}

/* Gold subgraph */
.cluster#GOLD &gt; rect, .cluster#GOLD rect {
  fill: #fffde7 !important;
  stroke: #c8941a !important;
  stroke-width: 2px !important;
}
.cluster#GOLD .cluster-label {
  fill: #7a5c00 !important;
  font-weight: bold !important;
}

/* Node label text sizing */
.node .label, .nodeLabel {
  font-size: 15px !important;
}
</style></svg>